<svg xmlns="http://www.w3.org/2000/svg" viewBox="0 0 1448 1448"><g fill="none" stroke="#80d49c" stroke-width="2"><path d="M1074.85 304.41C987.46 211.6 865.81 161.24 739 158.54c-260.59-5.55-481.25 190.18-507.29 448.22-25.96 257.26 147.99 488.88 400.44 539.75q.6.12.6.73v141.78q0 .78.76.62c8.97-1.87 19.59-3.44 27.01-4.9 280.13-55.06 523.15-274.49 552.9-568.47 15.02-148.48-36-302.93-138.57-411.86" vector-effect="non-scaling-stroke"/><path d="M883.8 396c-2.14-47.58-63.87-70.88-97.28-37.62-8.3 8.26-14.56 20.4-20.51 31.88-22.21 42.88-19.18 90.92 10.65 129.47q.52.68 1.35.49c41.01-9.22 75.07-35.05 93.61-72.86 8.04-16.38 12.99-33.23 12.18-51.36M592.37 482.38c20.26 19.74 43.77 30.94 71.01 38q.46.12.74-.26c30.31-42.9 29.95-97.32 2.07-141.26-11.15-17.57-25.85-30.82-46.86-32.87-35.23-3.44-69.12 25.86-64.57 62.5 3.44 27.73 17.73 54.52 37.61 73.89M419.64 576.49c8.88 11.37 24.11 20.72 37.43 27.71q39.13 20.57 82.92 13.45c18.34-2.98 39.17-9.95 54.36-21.26q.43-.32.29-.83C579.75 539.64 525.49 493 466.4 492.26c-23.51-.29-43.87 10.37-53.06 32.24-7.28 17.32-5.3 37.13 6.3 51.99M857.05 722.62c21.7 46.33 73.04 83.74 125.38 81.32 41.43-1.92 70.17-52.21 41.72-86q-5.03-5.98-15.17-12.9c-21.28-14.52-44.53-25.02-71.24-27.05q-47.71-3.61-87.16 21.31a1 1 0 0 0-.47.81c-.25 6.11 4.31 16.88 6.94 22.51M419.54 720.3c-27.3 33.45-2.86 82.46 39.2 86.23q21.96 1.97 42.68-5.22c44.27-15.35 80.38-50.44 89.4-97.39q.15-.82-.55-1.28c-38.19-25.1-86.03-29.18-128.13-11.72-16.31 6.76-31.63 15.94-42.6 29.38M579.17 935.08c20.24 17.17 50.69 21.85 71.73 4.18q5.96-5.01 12.71-15.3 12.17-18.56 19.13-36.96c13.9-36.73 6.79-80.07-15.34-112.43a2.03 2.02-23.6 0 0-2.14-.83q-62.23 14.74-91.93 71.08c-15.05 28.55-22.33 66.37 5.84 90.26M784.07 926.18c19.09 25.37 52.68 28.32 79.01 13.42 14.34-8.13 25.76-22.38 26.43-39.34 1.48-37.68-21.12-74.2-49.96-96.51q-25.84-19.98-57.82-26.86-2-.43-3.39 1.7c-30.31 46.72-27.71 103.15 5.73 147.59" vector-effect="non-scaling-stroke"/></g><path fill="#fff" d="M0 0h1448v1448H0V0Zm1074.85 304.41C987.46 211.6 865.81 161.24 739 158.54c-260.59-5.55-481.25 190.18-507.29 448.22-25.96 257.26 147.99 488.88 400.44 539.75q.6.12.6.73v141.78q0 .78.76.62c8.97-1.87 19.59-3.44 27.01-4.9 280.13-55.06 523.15-274.49 552.9-568.47 15.02-148.48-36-302.93-138.57-411.86Z"/><path fill="#00a839" d="M1074.85 304.41c102.57 108.93 153.59 263.38 138.57 411.86-29.75 293.98-272.77 513.41-552.9 568.47-7.42 1.46-18.04 3.03-27.01 4.9q-.76.16-.76-.62v-141.78q0-.61-.6-.73c-252.45-50.87-426.4-282.49-400.44-539.75C257.75 348.72 478.41 152.99 739 158.54c126.81 2.7 248.46 53.06 335.85 145.87ZM883.8 396c-2.14-47.58-63.87-70.88-97.28-37.62-8.3 8.26-14.56 20.4-20.51 31.88-22.21 42.88-19.18 90.92 10.65 129.47q.52.68 1.35.49c41.01-9.22 75.07-35.05 93.61-72.86 8.04-16.38 12.99-33.23 12.18-51.36Zm-291.43 86.38c20.26 19.74 43.77 30.94 71.01 38q.46.12.74-.26c30.31-42.9 29.95-97.32 2.07-141.26-11.15-17.57-25.85-30.82-46.86-32.87-35.23-3.44-69.12 25.86-64.57 62.5 3.44 27.73 17.73 54.52 37.61 73.89Zm-172.73 94.11c8.88 11.37 24.11 20.72 37.43 27.71q39.13 20.57 82.92 13.45c18.34-2.98 39.17-9.95 54.36-21.26q.43-.32.29-.83C579.75 539.64 525.49 493 466.4 492.26c-23.51-.29-43.87 10.37-53.06 32.24-7.28 17.32-5.3 37.13 6.3 51.99Zm437.41 146.13c21.7 46.33 73.04 83.74 125.38 81.32 41.43-1.92 70.17-52.21 41.72-86q-5.03-5.98-15.17-12.9c-21.28-14.52-44.53-25.02-71.24-27.05q-47.71-3.61-87.16 21.31a1 1 0 0 0-.47.81c-.25 6.11 4.31 16.88 6.94 22.51Zm-437.51-2.32c-27.3 33.45-2.86 82.46 39.2 86.23q21.96 1.97 42.68-5.22c44.27-15.35 80.38-50.44 89.4-97.39q.15-.82-.55-1.28c-38.19-25.1-86.03-29.18-128.13-11.72-16.31 6.76-31.63 15.94-42.6 29.38Zm159.63 214.78c20.24 17.17 50.69 21.85 71.73 4.18q5.96-5.01 12.71-15.3 12.17-18.56 19.13-36.96c13.9-36.73 6.79-80.07-15.34-112.43a2.03 2.02-23.6 0 0-2.14-.83q-62.23 14.74-91.93 71.08c-15.05 28.55-22.33 66.37 5.84 90.26Zm204.9-8.9c19.09 25.37 52.68 28.32 79.01 13.42 14.34-8.13 25.76-22.38 26.43-39.34 1.48-37.68-21.12-74.2-49.96-96.51q-25.84-19.98-57.82-26.86-2-.43-3.39 1.7c-30.31 46.72-27.71 103.15 5.73 147.59Z"/><path fill="#fff" d="M786.52 358.38c33.41-33.26 95.14-9.96 97.28 37.62.81 18.13-4.14 34.98-12.18 51.36-18.54 37.81-52.6 63.64-93.61 72.86q-.83.19-1.35-.49c-29.83-38.55-32.86-86.59-10.65-129.47 5.95-11.48 12.21-23.62 20.51-31.88ZM592.37 482.38c-19.88-19.37-34.17-46.16-37.61-73.89-4.55-36.64 29.34-65.94 64.57-62.5 21.01 2.05 35.71 15.3 46.86 32.87 27.88 43.94 28.24 98.36-2.07 141.26q-.28.38-.74.26c-27.24-7.06-50.75-18.26-71.01-38ZM419.64 576.49c-11.6-14.86-13.58-34.67-6.3-51.99 9.19-21.87 29.55-32.53 53.06-32.24 59.09.74 113.35 47.38 128.24 103.3q.14.51-.29.83c-15.19 11.31-36.02 18.28-54.36 21.26q-43.79 7.12-82.92-13.45c-13.32-6.99-28.55-16.34-37.43-27.71ZM982.43 803.94c-52.34 2.42-103.68-34.99-125.38-81.32-2.63-5.63-7.19-16.4-6.94-22.51a1 1 0 0 1 .47-.81q39.45-24.92 87.16-21.31c26.71 2.03 49.96 12.53 71.24 27.05q10.14 6.92 15.17 12.9c28.45 33.79-.29 84.08-41.72 86ZM458.74 806.53c-42.06-3.77-66.5-52.78-39.2-86.23 10.97-13.44 26.29-22.62 42.6-29.38 42.1-17.46 89.94-13.38 128.13 11.72q.7.46.55 1.28c-9.02 46.95-45.13 82.04-89.4 97.39q-20.72 7.19-42.68 5.22ZM579.17 935.08c-28.17-23.89-20.89-61.71-5.84-90.26q29.7-56.34 91.93-71.08a2.03 2.02-23.6 0 1 2.14.83c22.13 32.36 29.24 75.7 15.34 112.43q-6.96 18.4-19.13 36.96-6.75 10.29-12.71 15.3c-21.04 17.67-51.49 12.99-71.73-4.18ZM863.08 939.6c-26.33 14.9-59.92 11.95-79.01-13.42-33.44-44.44-36.04-100.87-5.73-147.59q1.39-2.13 3.39-1.7 31.98 6.88 57.82 26.86c28.84 22.31 51.44 58.83 49.96 96.51-.67 16.96-12.09 31.21-26.43 39.34Z"/></svg>